{"title":"Isabelle 2011 DVDrip Dutch English Klam","uid":9618619,"size":1532048046,"categoryP":"video","categoryS":"movies","magnet":"?xt=urn:btih:197fb32d595a9cd95ea2306399427c1956b6c4f1&amp;dn=Isabelle+2011+DVDrip+Dutch+English+Klam&amp;tr=udp%3A%2F%2Ftracker.openbittorrent.com%3A80&amp;tr=udp%3A%2F%2Fopen.demonii.com%3A1337&amp;tr=udp%3A%2F%2Ftracker.coppersurfer.tk%3A6969&amp;tr=udp%3A%2F%2Fexodus.desync.com%3A6969","seeders":1,"leechers":0,"uploader":"Klambake","files":-1,"time":1392464069,"description":"With: Halina Reijn, Tineke Caels and Wim Opbrouck\n\nNederlands gesproken,lose Engelse Subs\nWanneer de mismaakte kunstenares Jeanne (Tineke Caels), gedreven door jaloezie, de mooie en gevierde filmactrice Isabelle (Halina Reijn) ontvoert, ontstaat tussen de twee vrouwen een bloedstollende psychologische strijd op leven en dood. Jeanne wil Isabelle laten verhongeren om een schilderij te maken van de aftakeling van de mens. Gebaseerd op het gelijknamige boek van Tessa de Loo.\n\nDutch spoken,English Subs included yes/no\nIsabelle (Halina Reijn) is a famous and beloved actress from the Netherlands, who disappears when on Holiday in Belgium. She has been kidnapped by bartender Jeanne Bitor (Tineke Caels), an artist with a disfigured face. Jeanne is very bitter about her 'ugly' appearance, and she is obsessed with the process of dying and deterioration of animals and humans. Therefore, she abducts Isabelle and starves her to death, while painting her in different phases of the process.\n &lt;a href=&quot;\nhttp://www.imdb.com/title/tt1609132&quot; rel=&quot;nofollow&quot; target=&quot;_NEW&quot;&gt;\nhttp://www.imdb.com/title/tt1609132&lt;/a&gt;\n\n------------------------ Dutch Friends ------------------------\n---------------------------------------------------------------\n- Bezoek ook eens mijn vrienden op: &lt;a href=&quot; http://www.Film-Test.nl&quot; rel=&quot;nofollow&quot; target=&quot;_NEW&quot;&gt; http://www.Film-Test.nl&lt;/a&gt; --\n----- voor mijn Nederlandse Sync. ondertitels ---- en meer ----\n------- http://www.Film-Test.nl ---- voor Films en meer -------\n---------------------------------------------------------------\n\n\nGeneral:\n\nComplete name                    : IsabelleIsabelle.avi\nFormat                           : AVI\nFormat/Info                      : Audio Video Interleave\nFile size                        : 1.43 GiB\nDuration                         : 1h 32mn\nOverall bit rate                 : 2 215 Kbps\n\nVideo:\n\nFormat                           : MPEG-4 Visual\nFormat profile                   : Simple@L3\nFormat settings, BVOP            : No\nFormat settings, QPel            : No\nFormat settings, GMC             : No warppoints\nFormat settings, Matrix          : Default (H.263)\nCodec ID                         : XVID\nCodec ID/Hint                    : XviD\nDuration                         : 1h 32mn\nBit rate                         : 1 756 Kbps\nWidth                            : 720 pixels\nHeight                           : 304 pixels\nDisplay aspect ratio             : 2.35:1\nFrame rate                       : 25.000 fps\nColor space                      : YUV\nChroma subsampling               : 4:2:0\nBit depth                        : 8 bits\nScan type                        : Progressive\nCompression mode                 : Lossy\nBits/(Pixel*Frame)               : 0.321\nStream size                      : 1.13 GiB (79%)\nWriting library                  : XviD 1.1.2 (UTC 2006-11-01)\n\nAudio:\n\nFormat                           : AC-3\nFormat/Info                      : Audio Coding 3\nMode extension                   : CM (complete main)\nCodec ID                         : 2000\nDuration                         : 1h 32mn\nBit rate mode                    : Constant\nBit rate                         : 448 Kbps\nChannel(s)                       : 6 channels\nChannel positions                : Front: L C R, Side: L R, LFE\nSampling rate                    : 48.0 KHz\nBit depth                        : 16 bits\nCompression mode                 : Lossy\nStream size                      : 295 MiB (20%)\nAlignment                        : Aligned on interleaves\nInterleave, duration             : 32 ms (0.80 video frame)\nInterleave, preload duration     : 288 ms\n\n","torrent":{"xt":"urn:btih:197fb32d595a9cd95ea2306399427c1956b6c4f1","amp;dn":"Isabelle+2011+DVDrip+Dutch+English+Klam","amp;tr":["udp%3A%2F%2Ftracker.openbittorrent.com%3A80","udp%3A%2F%2Fopen.demonii.com%3A1337","udp%3A%2F%2Ftracker.coppersurfer.tk%3A6969","udp%3A%2F%2Fexodus.desync.com%3A6969"],"infoHash":"197fb32d595a9cd95ea2306399427c1956b6c4f1","infoHashBuffer":{"type":"Buffer","data":[25,127,179,45,89,90,156,217,94,162,48,99,153,66,124,25,86,182,196,241]},"announce":[],"urlList":[]}}